<?xml version="1.0" encoding="UTF-8" standalone="no"?>
<!-- Created with Inkscape (http://www.inkscape.org/) -->

<svg
   width="237mm"
   height="250mm"
   viewBox="0 0 474 500"
   version="1.1"
   id="svg1"
   inkscape:version="1.3.2 (091e20e, 2023-11-25, custom)"
   sodipodi:docname="ogpclogo.svg"
   inkscape:export-filename="ogpclogoeee.png"
   inkscape:export-xdpi="96"
   inkscape:export-ydpi="96"
   xmlns:inkscape="http://www.inkscape.org/namespaces/inkscape"
   xmlns:sodipodi="http://sodipodi.sourceforge.net/DTD/sodipodi-0.dtd"
   xmlns="http://www.w3.org/2000/svg"
   xmlns:svg="http://www.w3.org/2000/svg">
  <sodipodi:namedview
     id="namedview1"
     pagecolor="#ffffff"
     bordercolor="#000000"
     borderopacity="0.25"
     inkscape:showpageshadow="2"
     inkscape:pageopacity="0.0"
     inkscape:pagecheckerboard="0"
     inkscape:deskcolor="#d1d1d1"
     inkscape:document-units="mm"
     inkscape:zoom="0.35355339"
     inkscape:cx="618.01132"
     inkscape:cy="357.79603"
     inkscape:window-width="1920"
     inkscape:window-height="991"
     inkscape:window-x="-9"
     inkscape:window-y="-9"
     inkscape:window-maximized="1"
     inkscape:current-layer="layer1"
     showguides="false"
     inkscape:export-bgcolor="#80808000"
     showgrid="false" />
  <defs
     id="defs1">
    <rect
       x="110.30866"
       y="664.68036"
       width="622.20013"
       height="128.27922"
       id="rect4" />
    <rect
       x="98.994949"
       y="647.70984"
       width="582.65601"
       height="141.42136"
       id="rect3" />
  </defs>
  <g
     inkscape:label="Layer 1"
     inkscape:groupmode="layer"
     id="layer1"
     transform="translate(-88.907342,-188.57225)">
    <g
       id="g1"
       transform="matrix(3.8949687,-0.84126626,0.83776391,4.0706025,-186.80645,242.44463)">
      <g
         id="g2"
         transform="translate(0,-57.15003)">
        <g
           id="g24">
          <rect
             style="fill:#241c1c;stroke:#000000;stroke-width:0.708815;stroke-dasharray:none;stroke-opacity:1"
             id="rect21"
             width="48.313286"
             height="0.40111929"
             x="91.451843"
             y="151.23984"
             transform="matrix(0.95552824,-0.29489961,0,1,0,0)" />
          <path
             style="fill:none;stroke:#000000;stroke-width:1.02857;stroke-dasharray:none;stroke-opacity:1"
             d="m 87.338796,124.75136 6.951481,5.77977"
             id="path22" />
          <path
             style="fill:#e3dbdb;stroke:#000000;stroke-width:1.00353;stroke-dasharray:none;stroke-opacity:1"
             d="m 94.349488,130.66639 9.899352,2.06992 15.01222,-2.52086 8.59352,-3.72768 5.70085,-16.11159"
             id="path23" />
          <path
             style="fill:#e3dbdb;stroke:#000000;stroke-width:0.499999;stroke-dasharray:none;stroke-opacity:1"
             d="m 90.361843,127.36883 c -1.639017,-1.36149 -2.936095,-2.51642 -2.882395,-2.56651 0.108013,-0.10076 41.929252,-13.01492 42.563252,-13.1433 0.21828,-0.0442 -7.78867,4.02611 -17.79323,9.04514 -10.11448,5.07417 -18.349368,9.12874 -18.548848,9.1328 -0.276399,0.006 -1.042826,-0.56094 -3.338779,-2.46813 z"
             id="path24" />
        </g>
        <g
           id="g26"
           transform="matrix(2.1541532,0.59577621,-0.82180497,0.80123797,-16.052898,-29.63041)">
          <rect
             style="fill:#e3dbdb;stroke:#000000;stroke-width:0.703542;stroke-dasharray:none;stroke-opacity:1"
             id="rect24"
             width="15.785021"
             height="0.18658532"
             x="26.53278"
             y="138.67513"
             transform="matrix(0.87544293,-0.4833215,0.47684454,0.87898765,0,0)" />
          <path
             style="fill:#c9b8b8;fill-opacity:1;stroke:#000000;stroke-width:1;stroke-dasharray:none;stroke-opacity:1"
             d="m 89.36302,109.20677 4.894791,1.32292 5.886979,-1.65365 3.57188,-7.27604"
             id="path25" />
          <path
             style="fill:#c9b8b8;fill-opacity:1;stroke:#000000;stroke-width:0.2;stroke-dasharray:none;stroke-opacity:1"
             d="m 92.604166,108.01614 c 0.261093,-0.2535 0.345365,-0.26458 0.661458,-0.26458 0.0441,0 0.10111,-0.0312 0.132291,0 0.08819,0.0882 -0.08819,0.44097 0,0.52917 0.06183,0.0618 0.798235,-0.0617 0.859896,0 0.142653,0.14265 -0.244353,0.26458 0.264584,0.26458 0.06614,0 0.139274,0.0296 0.198437,0 0.05578,-0.0279 0.07651,-0.1044 0.132292,-0.13229 0.01971,-0.01 0.05055,0.0156 0.06615,0 0.01558,-0.0156 -0.01558,-0.0506 0,-0.0662 0.01558,-0.0156 0.05055,0.0156 0.06615,0 0.01558,-0.0156 -0.01558,-0.0506 0,-0.0661 0.02814,-0.0282 0.377288,-0.01 0.396875,0 0.206574,0.10328 0.132292,0.47425 0.132292,0.66146"
             id="path26" />
          <path
             style="fill:#c9b8b8;fill-opacity:1;stroke:#000000;stroke-width:0.245581;stroke-dasharray:none;stroke-opacity:1"
             d="m 94.279618,107.24136 c 0.456644,-0.21853 0.604033,-0.22808 1.156871,-0.22808 0.07713,0 0.176839,-0.0269 0.231373,0 0.154242,0.076 -0.154241,0.38015 0,0.45618 0.108139,0.0533 1.396091,-0.0532 1.503934,0 0.249496,0.12298 -0.427366,0.22809 0.46275,0.22809 0.115677,0 0.243587,0.0255 0.347061,0 0.09756,-0.0241 0.133814,-0.09 0.231375,-0.11405 0.03447,-0.009 0.08841,0.0135 0.115695,0 0.02725,-0.0134 -0.02725,-0.0436 0,-0.0571 0.02725,-0.0134 0.08841,0.0134 0.115694,0 0.02725,-0.0134 -0.02725,-0.0436 0,-0.057 0.04922,-0.0243 0.659866,-0.009 0.694123,0 0.361292,0.089 0.231375,0.40884 0.231375,0.57023"
             id="path26-1" />
          <path
             style="fill:#c9b8b8;fill-opacity:1;stroke:#000000;stroke-width:0.225106;stroke-dasharray:none;stroke-opacity:1"
             d="m 96.12289,106.21519 c 0.335423,-0.24998 0.443686,-0.2609 0.849766,-0.2609 0.05666,0 0.129895,-0.0308 0.169953,0 0.113296,0.087 -0.113297,0.43484 0,0.52181 0.07943,0.0609 1.025481,-0.0608 1.104696,0 0.18326,0.14067 -0.313917,0.2609 0.339901,0.2609 0.08492,0 0.178932,0.0292 0.254934,0 0.07169,-0.0275 0.09828,-0.10295 0.169951,-0.13045 0.02531,-0.01 0.065,0.0154 0.08505,0 0.02004,-0.0154 -0.02004,-0.0499 0,-0.0653 0.02004,-0.0154 0.065,0.0154 0.08492,0 0.02004,-0.0154 -0.02004,-0.0499 0,-0.0652 0.0361,-0.0278 0.484699,-0.01 0.509866,0 0.265383,0.10184 0.169956,0.46766 0.169956,0.65226"
             id="path26-9" />
          <path
             style="fill:#c9b8b8;fill-opacity:1;stroke:#000000;stroke-width:0.177087;stroke-dasharray:none;stroke-opacity:1"
             d="m 98.486592,104.84972 c 0.227442,-0.22815 0.300849,-0.23813 0.576189,-0.23813 0.03842,0 0.08808,-0.0281 0.115237,0 0.07683,0.0794 -0.07683,0.39688 0,0.47626 0.05383,0.0556 0.695335,-0.0555 0.749046,0 0.124266,0.12839 -0.212857,0.23813 0.230476,0.23813 0.0576,0 0.12131,0.0266 0.17286,0 0.0486,-0.0251 0.0666,-0.094 0.11523,-0.11906 0.0172,-0.009 0.0441,0.014 0.0576,0 0.0136,-0.014 -0.0136,-0.0455 0,-0.0596 0.0136,-0.014 0.0441,0.014 0.0577,0 0.0136,-0.014 -0.0136,-0.0455 0,-0.0595 0.0245,-0.0254 0.32865,-0.009 0.34571,0 0.17995,0.093 0.11524,0.42684 0.11524,0.59533"
             id="path26-2" />
        </g>
        <path
           style="fill:#000000;fill-opacity:1;stroke:none;stroke-width:0;stroke-dasharray:none;stroke-opacity:1"
           d="m 466.60625,432.37025 -0.73511,-1.0222 -0.0102,-0.26768 -0.0102,-0.26768 4.08796,-1.25323 c 6.52696,-2.00094 12.04937,-3.68236 12.09197,-3.68166 0.0216,3.6e-4 -0.17943,0.11667 -0.44681,0.25847 -0.52903,0.28057 -8.63136,4.41229 -12.09312,6.16679 l -2.14943,1.08938 z"
           id="path27"
           transform="scale(0.26458333)" />
        <path
           style="fill:none;fill-opacity:1;stroke:#000000;stroke-width:0.6;stroke-dasharray:none;stroke-opacity:1"
           d="m 101.77624,132.27169 -5.332034,7.20291 2.15152,4.30304 1.777344,-0.65481 -1.683797,-3.64823 5.706207,-6.45456"
           id="path28" />
        <path
           style="fill:#ff6600;fill-opacity:1;stroke:#000000;stroke-width:0.801759;stroke-dasharray:none;stroke-opacity:1"
           d="m 369.70022,534.52197 -3.6134,-7.23703 9.40568,-12.69358 9.40569,-12.69358 1.12138,0.22398 c 0.61677,0.12319 2.2495,0.47469 3.6283,0.78112 l 2.5069,0.55715 -5.64108,6.36396 c -3.10259,3.50018 -7.77072,8.77522 -10.37361,11.72232 l -4.73255,5.35837 3.04247,6.59587 c 1.67336,3.62774 2.98599,6.64404 2.91697,6.7029 -0.069,0.0589 -1.00927,0.43294 -2.08942,0.83129 l -1.96392,0.72426 z"
           id="path29"
           transform="scale(0.26458333)" />
        <circle
           id="path30"
           style="fill:#ff6600;stroke:#000000;stroke-width:0.264583"
           cx="130.68144"
           cy="110.94358"
           r="0.028255781" />
        <path
           style="fill:none;fill-opacity:1;stroke:#000000;stroke-width:0.600001;stroke-dasharray:none;stroke-opacity:1"
           d="m 130.77498,111.22421 1.30962,-12.909117 1.40316,-1.309621 1.77735,-0.654809 2.33861,0.280633 2.24506,1.403165 v 1.96443 l -0.8419,0.374179 -2.43215,0.46772 -1.30962,0.8419 -1.77735,8.41899"
           id="path31" />
        <path
           style="fill:none;fill-opacity:1;stroke:#000000;stroke-width:0.600001;stroke-dasharray:none;stroke-opacity:1"
           d="M 140.04726,97.912369 Z"
           id="path32" />
        <path
           style="fill:none;fill-opacity:1;stroke:#000000;stroke-width:0.1;stroke-dasharray:none;stroke-opacity:1"
           d="m 140.09687,97.895832 0.64493,0.181901 0.41341,0.396875 0.24804,0.396875 1.12448,0.04961 h 0.4961 l 1.14101,0.132291 -4.51445,1.322916"
           id="path34" />
        <path
           style="fill:#ff6600;fill-opacity:1;stroke:#000000;stroke-width:0.0151181;stroke-dasharray:none;stroke-opacity:1"
           d="m 529.73346,374.44298 v -4.15586 l 0.27622,0.0788 c 0.15191,0.0434 0.62102,0.17502 1.04245,0.29259 l 0.76623,0.21376 0.75738,0.72686 c 0.7559,0.72546 0.75832,0.7284 1.2446,1.51461 l 0.48722,0.78774 0.22097,0.002 c 0.12154,10e-4 1.05624,0.0413 2.07713,0.0892 1.02088,0.0479 2.30362,0.0868 2.85052,0.0865 0.88308,-4.6e-4 1.17859,0.0204 2.64028,0.18673 0.90525,0.10299 1.63114,0.19974 1.61309,0.21498 -0.0181,0.0152 -3.1452,0.93857 -6.94921,2.05182 -3.80402,1.11325 -6.94125,2.03349 -6.97163,2.04497 -0.0439,0.0166 -0.0553,-0.82863 -0.0553,-4.13499 z"
           id="path35"
           transform="scale(0.26458333)" />
        <ellipse
           style="fill:#24221c;fill-opacity:1;stroke:#000000;stroke-width:0.004;stroke-dasharray:none;stroke-opacity:1"
           id="path36"
           cx="142.76628"
           cy="99.162842"
           rx="0.12862346"
           ry="0.13446999" />
        <ellipse
           style="fill:#24221c;fill-opacity:1;stroke:#000000;stroke-width:0.00460808;stroke-dasharray:none;stroke-opacity:1"
           id="path37"
           cx="142.36279"
           cy="99.168694"
           rx="0.14001246"
           ry="0.1224729" />
        <path
           style="fill:#e3dbdb;fill-opacity:1;stroke:#000000;stroke-width:0.00755905;stroke-dasharray:none;stroke-opacity:1"
           d="m 496.27709,415.125 c 0.0149,-0.89375 0.98633,-10.93216 2.15874,-22.30758 l 2.13164,-20.68257 2.46627,-2.15866 c 3.67686,-3.21826 7.26514,-4.37788 12.21157,-3.9464 3.59142,0.31328 4.33833,0.57776 7.9834,2.82685 l 4.02129,2.48123 v 2.91729 c 0,2.85387 -0.0353,2.92832 -1.625,3.42474 -0.89375,0.2791 -3.51825,0.88141 -5.83221,1.33847 -2.94221,0.58114 -5.05048,1.35813 -7.0118,2.58414 l -2.80458,1.75312 -3.25773,15.57219 -3.25773,15.57218 -3.23047,1.08844 c -4.16684,1.40394 -3.98488,1.42527 -3.95339,-0.46344 z"
           id="path38"
           transform="scale(0.26458333)" />
        <ellipse
           style="fill:#24221c;fill-opacity:1;stroke:#000000;stroke-width:0.004;stroke-dasharray:none;stroke-opacity:1"
           id="path39"
           cx="135.26822"
           cy="98.193489"
           rx="0.42994791"
           ry="0.39687499" />
        <path
           style="fill:#ff6600;fill-opacity:1;stroke:#000000;stroke-width:0.7;stroke-dasharray:none;stroke-opacity:1"
           d="m 109.5375,132.15937 -2.38125,6.74688 3.30729,3.30729 1.05833,-1.32292 -2.51354,-1.85208 3.30729,-7.54062"
           id="path40" />
        <path
           style="fill:none;fill-opacity:1;stroke:#000000;stroke-width:0.788588;stroke-dasharray:none;stroke-opacity:1"
           d="m 101.27876,120.22602 -9.065275,-2.15533 -2.692897,-5.63054"
           id="path41" />
        <path
           style="fill:#c9b8b8;fill-opacity:1;stroke:#000000;stroke-width:0.661417;stroke-dasharray:none;stroke-opacity:1"
           d="m 365.39601,448.60616 c -8.58219,-2.05194 -15.64265,-3.76947 -15.6899,-3.81671 -0.21467,-0.21468 -7.83004,-16.24885 -7.75362,-16.32527 0.0474,-0.0474 4.51282,1.77594 9.92311,4.05193 l 9.83689,4.13815 23.26876,3.61553 c 12.79781,1.98855 23.36035,3.64375 23.47232,3.67823 0.2373,0.0731 -26.83139,8.44141 -27.20357,8.41003 -0.1375,-0.0116 -7.2718,-1.69994 -15.85399,-3.75189 z"
           id="path42"
           transform="scale(0.26458333)" />
        <path
           style="fill:#c9b8b8;fill-opacity:1;stroke:#000000;stroke-width:0.0103346;stroke-dasharray:none;stroke-opacity:1"
           d="m 341.53371,428.17745 c -0.0524,-0.10961 -0.0943,-0.20023 -0.0931,-0.20137 0.001,-0.001 0.0935,0.0363 0.2053,0.0832 0.11177,0.0469 0.20202,0.0863 0.20054,0.0875 -10e-4,0.001 -0.0106,0.005 -0.0203,0.01 -0.0544,0.0226 -0.10902,0.066 -0.14309,0.11378 -0.0145,0.0203 -0.0346,0.0593 -0.0506,0.098 -0.003,0.007 -0.0184,-0.0224 -0.0988,-0.1906 z"
           id="path43"
           transform="scale(0.26458333)" />
        <path
           style="fill:#c9b8b8;fill-opacity:1;stroke:#000000;stroke-width:0.1;stroke-dasharray:none;stroke-opacity:1"
           d="m 94.401251,116.90699 c 0.150162,-0.047 0.246261,-0.16704 0.373172,-0.25011 0.01931,-0.0123 0.08817,-0.0335 0.102685,-0.0534 0.01763,-0.0243 0.03295,-0.0998 0.02755,-0.12616 -0.0072,-0.0354 -0.102366,-0.22155 -0.144441,-0.24175 -0.05861,-0.0281 -0.07721,0.0123 -0.14025,0.0171 -0.06081,0.005 -0.118829,-10e-4 -0.177204,0.0177 -0.02114,0.006 -0.03754,0.024 -0.05868,0.0305 -0.02342,0.008 -0.04997,-0.005 -0.07396,10e-4 -0.01087,0.002 -0.01827,0.0151 -0.02934,0.0153 -0.0156,2.3e-4 -0.0293,-0.011 -0.04462,-0.0141 -0.120145,-0.0237 -0.143214,-0.0216 -0.230659,-0.085 -0.0063,-0.005 -0.01746,-10e-4 -0.02229,-0.007 -0.02387,-0.0296 -0.0427,-0.082 -0.06107,-0.11736 -0.01847,-0.0355 -0.08725,-0.14148 -0.08397,-0.16136 0.01408,-0.0851 0.05926,-0.18874 0.106733,-0.2606 0.03362,-0.0509 0.06881,-0.0627 0.08684,-0.1197 0.01064,-0.0336 0.01671,-0.0688 0.02051,-0.1039 4.41e-4,-0.006 -0.01086,-0.0102 -0.0076,-0.0146 0.0065,-0.009 0.02145,-0.008 0.02934,-0.0153 0.0056,-0.005 0.0025,-0.016 0.0071,-0.0223 0.01332,-0.0184 0.04006,-0.0254 0.05106,-0.0452 0.03967,-0.0722 0.06404,-0.15654 0.06273,-0.2377 -2.68e-4,-0.0165 -0.01528,-0.0294 -0.0229,-0.044 -0.06253,-0.12016 -0.172677,-0.11916 -0.29113,-0.16541 -0.02566,-0.01 -0.04734,-0.0313 -0.07452,-0.0357 -0.04649,-0.008 -0.09612,6.4e-4 -0.140249,0.0171 -0.04119,0.0158 -0.2028,0.0879 -0.250551,0.0559 -0.114692,-0.0771 -0.200463,-0.13447 -0.262983,-0.25461 -0.01643,-0.0316 -0.09037,-0.1394 -0.06167,-0.15433"
           id="path44" />
        <path
           style="fill:#c9b8b8;fill-opacity:1;stroke:#000000;stroke-width:0.1;stroke-dasharray:none;stroke-opacity:1"
           d="m 97.939952,117.77769 c 0.150162,-0.047 0.246261,-0.16704 0.373172,-0.25011 0.01931,-0.0123 0.08817,-0.0335 0.102685,-0.0534 0.01763,-0.0243 0.03295,-0.0998 0.02755,-0.12616 -0.0072,-0.0354 -0.102366,-0.22155 -0.144441,-0.24175 -0.05861,-0.0281 -0.07721,0.0123 -0.14025,0.0171 -0.06081,0.005 -0.118829,-10e-4 -0.177204,0.0177 -0.02114,0.006 -0.03754,0.024 -0.05868,0.0305 -0.02342,0.008 -0.04997,-0.005 -0.07396,10e-4 -0.01087,0.002 -0.01827,0.0151 -0.02934,0.0153 -0.0156,2.3e-4 -0.0293,-0.011 -0.04462,-0.0141 -0.120145,-0.0237 -0.143214,-0.0216 -0.230659,-0.085 -0.0063,-0.005 -0.01746,-10e-4 -0.02229,-0.007 -0.02387,-0.0296 -0.0427,-0.082 -0.06107,-0.11736 -0.01847,-0.0355 -0.08725,-0.14148 -0.08397,-0.16136 0.01408,-0.0851 0.05926,-0.18874 0.106733,-0.2606 0.03362,-0.0509 0.06881,-0.0627 0.08684,-0.1197 0.01064,-0.0336 0.01671,-0.0688 0.02051,-0.1039 4.41e-4,-0.006 -0.01086,-0.0102 -0.0076,-0.0146 0.0065,-0.009 0.02145,-0.008 0.02934,-0.0153 0.0056,-0.005 0.0025,-0.016 0.0071,-0.0223 0.01332,-0.0184 0.04006,-0.0254 0.05106,-0.0452 0.03967,-0.0722 0.06404,-0.15654 0.06273,-0.2377 -2.68e-4,-0.0165 -0.01528,-0.0294 -0.0229,-0.044 -0.06253,-0.12016 -0.172677,-0.11916 -0.29113,-0.16541 -0.02566,-0.01 -0.04734,-0.0313 -0.07452,-0.0357 -0.04649,-0.008 -0.09612,6.4e-4 -0.140249,0.0171 -0.04119,0.0158 -0.2028,0.0879 -0.250551,0.0559 -0.114692,-0.0771 -0.200463,-0.13447 -0.262983,-0.25461 -0.01643,-0.0316 -0.09037,-0.1394 -0.06167,-0.15433"
           id="path44-2" />
        <path
           style="fill:#c9b8b8;fill-opacity:1;stroke:#000000;stroke-width:0.1;stroke-dasharray:none;stroke-opacity:1"
           d="m 100.58579,118.30684 c 0.15016,-0.047 0.24626,-0.16704 0.37317,-0.25011 0.0193,-0.0123 0.0882,-0.0335 0.10269,-0.0534 0.0176,-0.0243 0.0329,-0.0998 0.0276,-0.12616 -0.007,-0.0354 -0.10237,-0.22155 -0.14445,-0.24175 -0.0586,-0.0281 -0.0772,0.0123 -0.14025,0.0171 -0.0608,0.005 -0.11883,-10e-4 -0.1772,0.0177 -0.0211,0.006 -0.0375,0.024 -0.0587,0.0305 -0.0234,0.008 -0.05,-0.005 -0.074,10e-4 -0.0109,0.002 -0.0183,0.0151 -0.0293,0.0153 -0.0156,2.3e-4 -0.0293,-0.011 -0.0446,-0.0141 -0.12015,-0.0237 -0.14322,-0.0216 -0.23066,-0.085 -0.006,-0.005 -0.0175,-0.001 -0.0223,-0.007 -0.0239,-0.0296 -0.0427,-0.082 -0.0611,-0.11736 -0.0185,-0.0355 -0.0873,-0.14148 -0.084,-0.16136 0.0141,-0.0851 0.0593,-0.18874 0.10673,-0.2606 0.0336,-0.0509 0.0688,-0.0627 0.0868,-0.1197 0.0106,-0.0336 0.0167,-0.0688 0.0205,-0.1039 4.4e-4,-0.006 -0.0109,-0.0102 -0.008,-0.0146 0.007,-0.009 0.0215,-0.008 0.0293,-0.0153 0.006,-0.005 0.002,-0.016 0.007,-0.0223 0.0133,-0.0184 0.0401,-0.0254 0.0511,-0.0452 0.0397,-0.0722 0.064,-0.15654 0.0627,-0.2377 -2.7e-4,-0.0165 -0.0153,-0.0294 -0.0229,-0.044 -0.0625,-0.12016 -0.17268,-0.11916 -0.29113,-0.16541 -0.0257,-0.01 -0.0473,-0.0313 -0.07452,-0.0357 -0.04649,-0.008 -0.09612,6.4e-4 -0.140249,0.0171 -0.04119,0.0158 -0.2028,0.0879 -0.250551,0.0559 -0.114692,-0.0771 -0.200463,-0.13447 -0.262983,-0.25461 -0.01643,-0.0316 -0.09037,-0.1394 -0.06167,-0.15433"
           id="path44-9" />
        <path
           style="fill:#c9b8b8;fill-opacity:1;stroke:#000000;stroke-width:0.1;stroke-dasharray:none;stroke-opacity:1"
           d="m 103.23164,118.83601 c 0.15016,-0.047 0.24626,-0.16704 0.37317,-0.25011 0.0193,-0.0123 0.0882,-0.0335 0.10269,-0.0534 0.0176,-0.0243 0.0329,-0.0998 0.0276,-0.12616 -0.007,-0.0354 -0.10237,-0.22155 -0.14445,-0.24175 -0.0586,-0.0281 -0.0772,0.0123 -0.14025,0.0171 -0.0608,0.005 -0.11883,-0.001 -0.1772,0.0177 -0.0211,0.006 -0.0375,0.024 -0.0587,0.0305 -0.0234,0.008 -0.05,-0.005 -0.074,0.001 -0.0109,0.002 -0.0183,0.0151 -0.0293,0.0153 -0.0156,2.3e-4 -0.0293,-0.011 -0.0446,-0.0141 -0.12015,-0.0237 -0.14322,-0.0216 -0.23066,-0.085 -0.006,-0.005 -0.0175,-0.001 -0.0223,-0.007 -0.0239,-0.0296 -0.0427,-0.082 -0.0611,-0.11736 -0.0185,-0.0355 -0.0873,-0.14148 -0.084,-0.16136 0.0141,-0.0851 0.0593,-0.18874 0.10673,-0.2606 0.0336,-0.0509 0.0688,-0.0627 0.0868,-0.1197 0.0106,-0.0336 0.0167,-0.0688 0.0205,-0.1039 4.4e-4,-0.006 -0.0109,-0.0102 -0.008,-0.0146 0.007,-0.009 0.0215,-0.008 0.0293,-0.0153 0.006,-0.005 0.002,-0.016 0.007,-0.0223 0.0133,-0.0184 0.0401,-0.0254 0.0511,-0.0452 0.0397,-0.0722 0.064,-0.15654 0.0627,-0.2377 -2.7e-4,-0.0165 -0.0153,-0.0294 -0.0229,-0.044 -0.0625,-0.12016 -0.17268,-0.11916 -0.29113,-0.16541 -0.0257,-0.01 -0.0473,-0.0313 -0.0745,-0.0357 -0.0465,-0.008 -0.0961,6.4e-4 -0.14025,0.0171 -0.0412,0.0158 -0.2028,0.0879 -0.25055,0.0559 -0.1147,-0.0771 -0.20047,-0.13447 -0.26299,-0.25461 -0.0164,-0.0316 -0.0904,-0.1394 -0.0617,-0.15433"
           id="path44-4" />
        <path
           style="fill:#c9b8b8;fill-opacity:1;stroke:#000000;stroke-width:0.1;stroke-dasharray:none;stroke-opacity:1"
           d="m 96.352451,117.77769 c 0.150162,-0.047 0.246261,-0.16704 0.373172,-0.25011 0.01931,-0.0123 0.08817,-0.0335 0.102685,-0.0534 0.01763,-0.0243 0.03295,-0.0998 0.02755,-0.12616 -0.0072,-0.0354 -0.102366,-0.22155 -0.144441,-0.24175 -0.05861,-0.0281 -0.07721,0.0123 -0.14025,0.0171 -0.06081,0.005 -0.118829,-10e-4 -0.177204,0.0177 -0.02114,0.006 -0.03754,0.024 -0.05868,0.0305 -0.02342,0.008 -0.04997,-0.005 -0.07396,10e-4 -0.01087,0.002 -0.01827,0.0151 -0.02934,0.0153 -0.0156,2.3e-4 -0.0293,-0.011 -0.04462,-0.0141 -0.120145,-0.0237 -0.143214,-0.0216 -0.230659,-0.085 -0.0063,-0.005 -0.01746,-10e-4 -0.02229,-0.007 -0.02387,-0.0296 -0.0427,-0.082 -0.06107,-0.11736 -0.01847,-0.0355 -0.08725,-0.14148 -0.08397,-0.16136 0.01408,-0.0851 0.05926,-0.18874 0.106733,-0.2606 0.03362,-0.0509 0.06881,-0.0627 0.08684,-0.1197 0.01064,-0.0336 0.01671,-0.0688 0.02051,-0.1039 4.41e-4,-0.006 -0.01086,-0.0102 -0.0076,-0.0146 0.0065,-0.009 0.02145,-0.008 0.02934,-0.0153 0.0056,-0.005 0.0025,-0.016 0.0071,-0.0223 0.01332,-0.0184 0.04006,-0.0254 0.05106,-0.0452 0.03967,-0.0722 0.06404,-0.15654 0.06273,-0.2377 -2.68e-4,-0.0165 -0.01528,-0.0294 -0.0229,-0.044 -0.06253,-0.12016 -0.172677,-0.11916 -0.29113,-0.16541 -0.02566,-0.01 -0.04734,-0.0313 -0.07452,-0.0357 -0.04649,-0.008 -0.09612,6.4e-4 -0.140249,0.0171 -0.04119,0.0158 -0.2028,0.0879 -0.250551,0.0559 -0.114692,-0.0771 -0.200463,-0.13447 -0.262983,-0.25461 -0.01643,-0.0316 -0.09037,-0.1394 -0.06167,-0.15433"
           id="path44-3" />
      </g>
    </g>
    <path
       style="fill:#008080;fill-opacity:0.996454;stroke:#000000;stroke-width:0"
       d=""
       id="path15"
       transform="scale(0.26458333)" />
    <path
       style="fill:#008080;fill-opacity:0.996454;stroke:#000000;stroke-width:0"
       d=""
       id="path47"
       transform="scale(0.26458333)" />
    <path
       style="fill:#008080;fill-opacity:0.996454;stroke:#000000;stroke-width:0"
       d=""
       id="path72"
       transform="matrix(0.52916666,0,0,0.52916666,88.907342,188.57225)" />
    <path
       style="fill:#008080;fill-opacity:0.996454;stroke:#000000;stroke-width:0"
       d=""
       id="path76"
       transform="matrix(0.52916666,0,0,0.52916666,88.907342,188.57225)" />
  </g>
</svg>
